<!DOCTYPE svg PUBLIC "-//W3C//DTD SVG 1.1//EN" "http://www.w3.org/Graphics/SVG/1.1/DTD/svg11.dtd">
<!-- Uploaded to: SVG Repo, www.svgrepo.com, Transformed by: SVG Repo Mixer Tools -->
<svg fill="#eb8900" height="800px" width="800px" version="1.1" id="Layer_1" xmlns="http://www.w3.org/2000/svg" xmlns:xlink="http://www.w3.org/1999/xlink" viewBox="0 0 472.61 472.61" xml:space="preserve" stroke="#eb8900">
<g id="SVGRepo_bgCarrier" stroke-width="0"/>
<g id="SVGRepo_tracerCarrier" stroke-linecap="round" stroke-linejoin="round"/>
<g id="SVGRepo_iconCarrier"> <g> <g> <path d="M283.509,256.428v12.074h31.459v169.644c0,19.032,15.426,34.457,34.455,34.457h0.001 c19.029,0,34.455-15.425,34.455-34.457V0.008C319.349,69.808,283.509,161.371,283.509,256.428z"/> </g> </g> <g> <g> <path d="M184.652,0v156.553H164.96V0h-23.563v156.553h-19.692V0H88.732v138.77c0,25.274,12.223,48.986,32.808,63.648v238.554 c0,17.473,14.165,31.639,31.638,31.639c17.474,0,31.639-14.166,31.639-31.639V202.418c20.584-14.663,32.807-38.374,32.807-63.648 V0H184.652z"/> </g> </g> </g>
</svg>