<!DOCTYPE svg PUBLIC "-//W3C//DTD SVG 1.1//EN" "http://www.w3.org/Graphics/SVG/1.1/DTD/svg11.dtd">

<!-- Uploaded to: SVG Repo, www.svgrepo.com, Transformed by: SVG Repo Mixer Tools -->
<svg fill="#000000" height="800px" width="800px" version="1.1" id="Layer_1" xmlns="http://www.w3.org/2000/svg" xmlns:xlink="http://www.w3.org/1999/xlink" viewBox="-51.2 -51.2 614.40 614.40" xml:space="preserve" stroke="#eb8900" stroke-width="12.288">

<g id="SVGRepo_bgCarrier" stroke-width="0"/>

<g id="SVGRepo_tracerCarrier" stroke-linecap="round" stroke-linejoin="round"/>

<g id="SVGRepo_iconCarrier"> <g> <g> <path d="M406.196,116.796h-4.405V85.341c0-11.465-9.327-20.791-20.792-20.791h-3.159V20.792C377.84,9.327,368.513,0,357.049,0 H154.951c-11.465,0-20.792,9.327-20.792,20.792V64.55h-12.8c-11.465,0-20.792,9.327-20.792,20.791v32.149 c-8.933,2.331-15.555,10.444-15.555,20.098v74.482v196.443v82.695c0,11.465,9.327,20.792,20.791,20.792h300.391 c11.465,0,20.792-9.327,20.792-20.792v-82.695V212.07v-74.482C426.987,126.123,417.659,116.796,406.196,116.796z M380.999,79.763 c3.076,0,5.578,2.502,5.578,5.578v31.455h-28.06V79.763H380.999z M149.373,20.792c0-3.076,2.502-5.578,5.578-5.578h202.097 c3.076,0,5.578,2.502,5.578,5.578V64.55H149.373V20.792z M343.304,79.763v37.033h-33.523V79.763H343.304z M294.568,79.763v37.033 h-33.523V79.763H294.568z M245.832,79.763v37.033h-33.523V79.763H245.832z M197.095,79.763v37.033h-33.523V79.763H197.095z M115.781,85.341c0-3.076,2.502-5.578,5.578-5.578h27v37.033h-32.578V85.341z M100.226,137.588c0-3.076,2.502-5.578,5.578-5.578 h300.391c3.076,0,5.578,2.502,5.578,5.578v66.876H100.226V137.588z M100.226,219.677h311.548v181.23H100.226V219.677z M411.774,491.209c0,3.075-2.503,5.578-5.578,5.578H105.804c-3.076,0-5.578-2.502-5.578-5.578V416.12h311.548V491.209z"/> </g> </g> <g> <g> <path d="M356.154,254.953c-14.756-14.756-38.766-14.756-53.521,0l-55.008,55.008c-7.125,7.124-11.049,16.628-11.049,26.761 c0,10.132,3.924,19.636,11.049,26.761c7.378,7.378,17.07,11.067,26.761,11.067c9.692,0,19.383-3.689,26.761-11.067l55.008-55.008 c7.124-7.124,11.048-16.628,11.048-26.761S363.279,262.078,356.154,254.953z M290.39,352.726c-8.825,8.824-23.182,8.824-32.008,0 c-4.251-4.252-6.592-9.934-6.592-16.003c0-6.069,2.342-11.752,6.592-16.003l22.125-22.126l32.008,32.008L290.39,352.726z M345.398,297.719l-22.126,22.125l-32.008-32.008l22.126-22.125c4.413-4.413,10.207-6.618,16.004-6.618 c5.795,0,11.592,2.207,16.003,6.618C354.223,274.536,354.223,288.894,345.398,297.719z"/> </g> </g> <g> <g> <path d="M216.85,265.419c-0.151-0.268-0.314-0.531-0.502-0.785c-0.047-0.063-0.099-0.119-0.148-0.181 c-7.424-10.681-19.776-17.692-33.741-17.692c-22.648,0-41.075,18.426-41.075,41.075c0,8.595,2.658,16.578,7.19,23.181 c0.231,0.955,0.652,1.88,1.272,2.72c0.764,1.033,1.74,1.813,2.823,2.334c7.49,7.899,18.07,12.84,29.79,12.84 c22.648,0,41.075-18.425,41.075-41.075C223.533,279.569,221.069,271.87,216.85,265.419z M156.597,287.836 c0-14.26,11.602-25.862,25.862-25.862c6.29,0,12.061,2.26,16.549,6.007l-40.405,29.834 C157.312,294.743,156.597,291.372,156.597,287.836z M182.459,313.698c-5.192,0-10.027-1.543-14.082-4.187l38.948-28.759 c0.643,2.254,0.995,4.628,0.995,7.084C208.32,302.096,196.719,313.698,182.459,313.698z"/> </g> </g> </g>

</svg>