<!DOCTYPE svg PUBLIC "-//W3C//DTD SVG 1.1//EN" "http://www.w3.org/Graphics/SVG/1.1/DTD/svg11.dtd">
<!-- Uploaded to: SVG Repo, www.svgrepo.com, Transformed by: SVG Repo Mixer Tools -->
<svg width="800px" height="800px" viewBox="0 0 48 48" xmlns="http://www.w3.org/2000/svg" fill="#eb8900" stroke="#eb8900">
<g id="SVGRepo_bgCarrier" stroke-width="0"/>
<g id="SVGRepo_tracerCarrier" stroke-linecap="round" stroke-linejoin="round"/>
<g id="SVGRepo_iconCarrier"> <title>file-text</title> <g id="Layer_2" data-name="Layer 2"> <g id="invisible_box" data-name="invisible box"> <rect width="48" height="48" fill="none"/> </g> <g id="icons_Q2" data-name="icons Q2"> <rect x="14" y="14" width="20" height="4" rx="2" ry="2"/> <rect x="14" y="22" width="20" height="4" rx="2" ry="2"/> <rect x="14" y="30" width="12" height="4" rx="2" ry="2"/> <path d="M38,7V41H10V7H38m2-4H8A2,2,0,0,0,6,5V43a2,2,0,0,0,2,2H40a2,2,0,0,0,2-2V5a2,2,0,0,0-2-2Z"/> </g> </g> </g>
</svg>